<svg
xmlns="http://www.w3.org/2000/svg"
width="24"
height="24"
view_box="0 0 24 24"
fill="none"
>
<path
  d="M17.4302 6.65978C16.6044 5.91456 15.6819 5.35866 14.7031 4.98L15.6255 2.58319C12.3224 1.31429 8.43911 2.12799 5.9295 4.90749C4.88619 6.0636 4.20944 7.42112 3.88718 8.83504C3.19835 11.8442 4.12082 15.1272 6.57403 17.3387C7.39982 18.0839 8.33035 18.6439 9.31324 19.0225L8.39077 21.4234C11.6899 22.6842 15.5651 21.8745 18.0707 19.091C19.114 17.9349 19.7907 16.5814 20.113 15.1634C20.8018 12.1543 19.8794 8.8713 17.4262 6.65978H17.4302ZM15.5732 16.8271C14.0263 18.5431 11.6375 19.0427 9.59925 18.2733C8.98695 18.0396 8.40688 17.6932 7.89127 17.2259C5.65961 15.2158 5.48237 11.7757 7.49247 9.54402C9.04738 7.81992 11.4563 7.32042 13.4986 8.11399C14.0988 8.34762 14.6668 8.69003 15.1744 9.14522C17.406 11.1553 17.5833 14.5955 15.5732 16.8271Z"
  fill="#0d3c48"
  fillOpacity="0.95"
/>
</svg>