<?xml version="1.0" encoding="UTF-8"?>
<svg id="Layer_1" data-name="Layer 1" xmlns="http://www.w3.org/2000/svg" viewBox="0 0 461.58 49.66">
  <defs>
    <style>
      .cls-1 {
        fill: #0d3c48;
        stroke-width: 0px;
      }
    </style>
  </defs>
  <path class="cls-1" d="M78.51,21.48c-5.85-1.51-7.3-2.24-7.3-4.47v-.1c0-1.65,1.5-2.96,4.35-2.96s5.76,1.24,8.73,3.31l2.6-6.58c-3.17-2.15-6.93-3.34-11.23-3.34-6.91,0-11.83,4.08-11.83,10.25v.1c0,6.75,4.39,8.65,11.2,10.4,5.65,1.45,6.81,2.43,6.81,4.32v.1c0,1.99-1.84,3.21-4.88,3.21-3.84,0-7.02-1.59-10.04-4.09l-2.65,6.69c3.73,2.68,8.16,4,12.55,4,7.29,0,12.41-3.79,12.41-10.54v-.1c0-5.93-3.87-8.4-10.72-10.2ZM110.71,7.83h-13.81v34.01h7.44v-10.2h5.65c7.58,0,13.66-4.08,13.66-11.96v-.09c0-6.95-4.87-11.76-12.94-11.76ZM116.12,19.83c0,2.92-2.17,5.15-5.89,5.15h-5.89v-10.4h5.74c3.72,0,6.04,1.8,6.04,5.15v.1ZM156.11,35.18v6.66h-25.74V7.83h25.49v6.65h-18.1v6.9h14.6v6.66h-14.6v7.14h18.35ZM189.67,35.18v6.66h-25.74V7.83h25.49v6.65h-18.1v6.9h14.55v6.66h-14.55v7.14h18.35ZM255.48,7.83v13.46h-13.71V7.83h-7.44v34.01h7.44v-13.65h13.71v13.65h7.44V7.83h-7.44ZM298.02,7.83l-8.88,14.38-8.89-14.38h-8.01v34.01h7.29v-22.06l9.41,14.38h.2l9.51-14.52v22.2h7.39V7.83h-8.02ZM333.8,7.58h-6.85l-14.49,34.26h7.58l3.09-7.63h14.3l3.09,7.63h7.77l-14.49-34.26ZM325.79,27.6l4.49-11.03,4.49,11.03h-8.98ZM375.87,7.83l-2.73,6.9h-7.46v27.11h-7.44V14.73h-10.29v-6.9h27.92ZM383.2,7.83v34.01h7.44V7.83h-7.44ZM461.58,31.68v.1c0,6.75-5.12,10.54-12.41,10.54-4.41,0-8.85-1.33-12.59-4.03l2.65-6.69c3.04,2.51,6.22,4.12,10.08,4.12,3.04,0,4.88-1.22,4.88-3.21v-.1c0-1.89-1.16-2.87-6.81-4.32-2.28-.58-4.29-1.19-5.96-2-3.3-1.57-5.24-3.92-5.24-8.4v-.1c0-6.17,4.92-10.25,11.83-10.25.28,0,.56.01.83.01,3.92.15,7.36,1.29,10.3,3.26l-2.6,6.58c-2.94-2.02-5.83-3.24-8.63-3.24-.67,0-1.26.07-1.77.2-1.7.43-2.58,1.49-2.58,2.76v.1c0,.79.18,1.4.69,1.92.91.93,2.85,1.58,6.61,2.55,6.85,1.8,10.72,4.27,10.72,10.2ZM227.25,36.36c-3.23,3.73-8.01,6.1-13.33,6.1-9.72,0-17.63-7.91-17.63-17.63s7.91-17.64,17.63-17.64c5.02,0,9.56,2.11,12.77,5.49l-4.56,5.38c-1.95-2.36-4.91-3.87-8.21-3.87-5.86,0-10.63,4.77-10.63,10.64s4.77,10.63,10.63,10.63c3.4,0,6.43-1.6,8.38-4.08l4.95,4.98ZM429.55,36.34c-3.23,3.73-8,6.1-13.32,6.1-9.72,0-17.63-7.91-17.63-17.63s7.91-17.63,17.63-17.63c5.02,0,9.56,2.11,12.77,5.49l-4.56,5.39c-1.95-2.37-4.91-3.88-8.21-3.88-5.86,0-10.63,4.77-10.63,10.63s4.77,10.63,10.63,10.63c3.4,0,6.43-1.6,8.37-4.09l4.95,4.99Z"/>
  <path class="cls-1" d="M34.17,11.57c-2.05-1.85-4.34-3.23-6.77-4.17l2.29-5.95C21.49-1.7,11.85.32,5.62,7.22,3.03,10.09,1.35,13.46.55,16.97c-1.71,7.47.58,15.62,6.67,21.11,2.05,1.85,4.36,3.24,6.8,4.18l-2.29,5.96c8.19,3.13,17.81,1.12,24.03-5.79,2.59-2.87,4.27-6.23,5.07-9.75,1.71-7.47-.58-15.62-6.67-21.11ZM29.56,36.81c-3.84,4.26-9.77,5.5-14.83,3.59-1.52-.58-2.96-1.44-4.24-2.6-5.54-4.99-5.98-13.53-.99-19.07,3.86-4.28,9.84-5.52,14.91-3.55,1.49.58,2.9,1.43,4.16,2.56,5.54,4.99,5.98,13.53.99,19.07Z"/>
</svg>